<svg xmlns="http://www.w3.org/2000/svg" width="92.779" height="94.808" viewBox="0 0 92.779 94.808">
  <path id="Pfad_5" data-name="Pfad 5" d="M88.615,28.4v2.386H86.961Zm0-20.47V21.213l-6.638,9.568H72.761ZM3.63,5.849h9.7l-9.7,13.98Zm0,21.163L18.31,5.849h7.722L8.737,30.782H3.63ZM31.015,5.849H40.66l-17.3,24.933H13.719Zm14.627,0H55.82l-17.3,24.933H28.346Zm15.161,0h9.644l-17.3,24.933H43.507Zm14.627,0h9.644l-17.3,24.933H58.134ZM0,0V36.323H13.452V89.113H7.687v5.695H23.168V89.113H17.4V36.323h57.76V89.113H69.4v5.695H84.879V89.113H79.113V36.323H92.779V0Z" fill="#151515"/>
</svg>
