<svg xmlns="http://www.w3.org/2000/svg" xmlns:xlink="http://www.w3.org/1999/xlink" width="110" height="107" viewBox="0 0 110 107">
  <defs>
    <clipPath id="clip-path">
      <rect id="Rechteck_21" data-name="Rechteck 21" width="110" height="107" transform="translate(-0.016 -0.222)" fill="none"/>
    </clipPath>
  </defs>
  <g id="Gruppe_54" data-name="Gruppe 54" transform="translate(0.016 0.222)" clip-path="url(#clip-path)">
    <path id="Pfad_3" data-name="Pfad 3" d="M99.044,106.9,61.828,69.687l8.451-8.451L107.5,98.451Zm-86.145,0L4.448,98.451l43-43L31.581,39.588,28.171,43l-6.524-6.524v12.6l-3.559,3.559L0,34.547l3.559-3.558H16.31L9.193,23.871,28.616,4.448A13.064,13.064,0,0,1,34.1,1.038a22.635,22.635,0,0,1,6.524-.89,16.512,16.512,0,0,1,6.524,1.26,17.351,17.351,0,0,1,5.486,3.781L36.771,21.054l7.117,7.117L40.329,31.73l15.42,15.42L73.838,29.061a16.482,16.482,0,0,1-1.853-4.448,20.781,20.781,0,0,1-.667-5.338A18.532,18.532,0,0,1,77.026,5.708,18.531,18.531,0,0,1,90.593,0a13.919,13.919,0,0,1,3.781.445,8.414,8.414,0,0,1,2.595,1.186l-12.6,12.6,11.12,11.12,12.6-12.6a12.1,12.1,0,0,1,1.26,2.891,13.514,13.514,0,0,1,.519,3.929,18.532,18.532,0,0,1-5.708,13.567,18.532,18.532,0,0,1-13.567,5.708,24.689,24.689,0,0,1-4.6-.371,15.758,15.758,0,0,1-3.559-1.112Z" fill="#fdce52"/>
  </g>
</svg>
