<svg xmlns="http://www.w3.org/2000/svg" xmlns:xlink="http://www.w3.org/1999/xlink" width="92.779" height="113.499" viewBox="0 0 92.779 113.499">
  <defs>
    <clipPath id="clip-path">
      <rect id="Rechteck_15" data-name="Rechteck 15" width="92.779" height="113.499" fill="none"/>
    </clipPath>
  </defs>
  <g id="Gruppe_50" data-name="Gruppe 50" clip-path="url(#clip-path)">
    <path id="Pfad_2" data-name="Pfad 2" d="M39.329,19.268a9.272,9.272,0,0,1-6.8-2.838,9.272,9.272,0,0,1-2.838-6.8,9.272,9.272,0,0,1,2.838-6.8,9.559,9.559,0,0,1,13.593,0,9.272,9.272,0,0,1,2.838,6.8,9.272,9.272,0,0,1-2.838,6.8,9.272,9.272,0,0,1-6.8,2.838m-.4,94.23V84.6L27.715,72.058,26.4,92.383,10.558,113.5l-6.335-4.751L17.949,90.4,16.893,65.2a86.091,86.091,0,0,1,.726-14.385,63.26,63.26,0,0,1,3.1-13.461L7.919,44.74V59.389H0V40.12l22.04-12.67a20.985,20.985,0,0,1,4.355-1.98,13.684,13.684,0,0,1,4.091-.66A10.4,10.4,0,0,1,36.1,26.329a9.077,9.077,0,0,1,3.629,4.421l3.431,7.787q2.508,5.675,9.634,9.3A34.388,34.388,0,0,0,68.627,51.47v7.918H62.556l30.222,52.13-3.431,1.98L57.409,58.333a34.566,34.566,0,0,1-11.416-5.345,31.374,31.374,0,0,1-8.908-8.776,56.856,56.856,0,0,0-2.442,9.7,42.274,42.274,0,0,0-.594,9.436l12.8,18.081V113.5Z" fill="#fdce52"/>
  </g>
</svg>
